<?xml version="1.0" encoding="UTF-8"?>
<svg width="24px" height="24px" viewBox="0 0 24 24" xmlns="http://www.w3.org/2000/svg">
    <title>Webhook Icon</title>
    <g fill="none">
        <path d="M12,0 C18.627417,0 24,5.372583 24,12 C24,18.627417 18.627417,24 12,24 C5.372583,24 0,18.627417 0,12 C0,5.372583 5.372583,0 12,0 Z" fill="#6C5CE7"/>
        <path d="M12,5 C13.1045695,5 14,5.8954305 14,7 C14,7.74006778 13.5978014,8.38475446 13,8.73205081 L13,10 L16,10 C16.8284271,10 17.5784271,10.6715729 17.5784271,11.5 C17.5784271,12.3284271 16.8284271,13 16,13 L13,13 L13,15.267949 C13.5978014,15.6152455 14,16.2599322 14,17 C14,18.1045695 13.1045695,19 12,19 C10.8954305,19 10,18.1045695 10,17 C10,16.2599322 10.4021986,15.6152455 11,15.267949 L11,13 L8,13 C7.17157288,13 6.42157288,12.3284271 6.42157288,11.5 C6.42157288,10.6715729 7.17157288,10 8,10 L11,10 L11,8.73205081 C10.4021986,8.38475446 10,7.74006778 10,7 C10,5.8954305 10.8954305,5 12,5 Z" fill="#FFFFFF"/>
    </g>
</svg>
