<?xml version="1.0" encoding="UTF-8"?>
<svg width="24px" height="24px" viewBox="0 0 24 24" xmlns="http://www.w3.org/2000/svg">
    <title>n8n Icon</title>
    <g fill="none" fill-rule="evenodd">
        <path fill="#13CF83" d="M2,0 L22,0 C23.1045695,-2.02906125e-16 24,0.8954305 24,2 L24,22 C24,23.1045695 23.1045695,24 22,24 L2,24 C0.8954305,24 1.3527075e-16,23.1045695 0,22 L0,2 C-1.3527075e-16,0.8954305 0.8954305,2.02906125e-16 2,0 Z"/>
        <path d="M14.6224834,6 L18,6 L18,18 L14.6224834,18 L14.6224834,10.3168436 L9.37751658,18 L6,18 L6,6 L9.37751658,6 L9.37751658,13.6831564 L14.6224834,6 Z" fill="#FFFFFF" fill-rule="nonzero"/>
        <circle fill="#FFFFFF" cx="19.5" cy="8.5" r="1.5"/>
        <circle fill="#FFFFFF" cx="4.5" cy="15.5" r="1.5"/>
    </g>
</svg>
