<?xml version="1.0" encoding="UTF-8"?>
<svg width="24px" height="24px" viewBox="0 0 24 24" xmlns="http://www.w3.org/2000/svg">
    <title>Postman Icon</title>
    <g fill="none">
        <path d="M12 0C5.373 0 0 5.373 0 12s5.373 12 12 12 12-5.373 12-12S18.627 0 12 0z" fill="#FF6C37"/>
        <path d="M16.732 8.32a.97.97 0 0 0-1.369 0l-7.203 7.214a.968.968 0 0 0 0 1.369.968.968 0 0 0 1.369 0l7.203-7.215a.968.968 0 0 0 0-1.368z" fill="#FFF"/>
        <path d="M16.086 7.367a2.42 2.42 0 1 0 0 4.84 2.42 2.42 0 0 0 0-4.84zm0 3.554a1.134 1.134 0 1 1 0-2.27 1.134 1.134 0 0 1 0 2.27z" fill="#FFF"/>
        <path d="M16.8 11.973a.97.97 0 0 1-.604.257.974.974 0 0 1-.586-.184l-3.028-2.255-1.596 1.596 2.178 2.957a.974.974 0 0 1-.14.646.974.974 0 0 1-.552.426l-3.436 1.01a.97.97 0 0 1-1.198-.655.97.97 0 0 1 .655-1.198l2.73-.803-2.345-3.178a.969.969 0 0 1-.007-1.094.97.97 0 0 1 1-.416l2.058.441.534-.533-2.122-.794a.97.97 0 0 1 .074-1.854l4.16-.8a.97.97 0 0 1 1.117.649.97.97 0 0 1-.649 1.116l-2.66.514 1.756.661.521-.522a2.42 2.42 0 0 1 3.441 0c.47.47.726 1.103.714 1.785a2.417 2.417 0 0 1-.763 1.77l-.192.258z" fill="#FFF"/>
    </g>
</svg>
