<?xml version="1.0" encoding="UTF-8"?>
<svg width="24px" height="24px" viewBox="0 0 24 24" xmlns="http://www.w3.org/2000/svg">
    <title>Zoho CRM Icon</title>
    <g fill="none" fill-rule="evenodd">
        <path d="M12,0 C18.6274173,0 24,5.37258267 24,12 C24,18.6274173 18.6274173,24 12,24 C5.37258267,24 0,18.6274173 0,12 C0,5.37258267 5.37258267,0 12,0 Z" fill="#E42527"/>
        <path d="M17.5,13 C17.5,15.4852814 15.4852814,17.5 13,17.5 L7,17.5 L7,13 C7,15.4852814 9.01471863,17.5 11.5,17.5 C13.9852814,17.5 16,15.4852814 16,13 L17.5,13 Z" fill="#FFFFFF"/>
        <path d="M17,6.5 L17,11 C17,8.51471863 14.9852814,6.5 12.5,6.5 C10.0147186,6.5 8,8.51471863 8,11 L6.5,11 C6.5,8.51471863 8.51471863,6.5 11,6.5 L17,6.5 Z" fill="#FFFFFF"/>
    </g>
</svg>
